<svg id="visual" viewBox="0 0 900 600" width="900" height="600" xmlns="http://www.w3.org/2000/svg" xmlns:xlink="http://www.w3.org/1999/xlink" version="1.1"><rect x="0" y="0" width="900" height="600" fill="#a16ae8"></rect><defs><linearGradient id="grad1_0" x1="33.3%" y1="0%" x2="100%" y2="100%"><stop offset="20%" stop-color="#a16ae8" stop-opacity="1"></stop><stop offset="80%" stop-color="#a16ae8" stop-opacity="1"></stop></linearGradient></defs><defs><linearGradient id="grad2_0" x1="0%" y1="0%" x2="66.7%" y2="100%"><stop offset="20%" stop-color="#a16ae8" stop-opacity="1"></stop><stop offset="80%" stop-color="#a16ae8" stop-opacity="1"></stop></linearGradient></defs><g transform="translate(900, 0)"><path d="M0 378.6C-71 371.5 -142.1 364.3 -189.3 327.9C-236.5 291.4 -259.9 225.5 -287.5 166C-315.1 106.5 -346.8 53.2 -378.6 0L0 0Z" fill="#fd49a0"></path></g><g transform="translate(0, 600)"><path d="M0 -378.6C70.7 -371.3 141.4 -363.9 189.3 -327.9C237.2 -291.8 262.4 -226.9 290.1 -167.5C317.9 -108.1 348.2 -54 378.6 0L0 0Z" fill="#fd49a0"></path></g></svg>